<?xml version="1.0" encoding="UTF-8" standalone="no"?>
<!-- Created with Inkscape (http://www.inkscape.org/) -->

<svg
   xmlns:dc="http://purl.org/dc/elements/1.1/"
   xmlns:cc="http://creativecommons.org/ns#"
   xmlns:rdf="http://www.w3.org/1999/02/22-rdf-syntax-ns#"
   xmlns:svg="http://www.w3.org/2000/svg"
   xmlns="http://www.w3.org/2000/svg"
   xmlns:sodipodi="http://sodipodi.sourceforge.net/DTD/sodipodi-0.dtd"
   xmlns:inkscape="http://www.inkscape.org/namespaces/inkscape"
   width="67.733246mm"
   height="67.733253mm"
   viewBox="0 0 67.733246 67.733253"
   version="1.1"
   id="svg8"
   sodipodi:docname="org.gabmus.ardhue-symbolic.svg"
   inkscape:version="0.92.2 2405546, 2018-03-11">
  <sodipodi:namedview
     id="base"
     pagecolor="#ffffff"
     bordercolor="#666666"
     borderopacity="1.0"
     inkscape:pageopacity="0.0"
     inkscape:pageshadow="2"
     inkscape:zoom="0.70710678"
     inkscape:cx="-106.42355"
     inkscape:cy="172.34324"
     inkscape:document-units="mm"
     inkscape:current-layer="layer1"
     showgrid="false"
     inkscape:window-width="2560"
     inkscape:window-height="1389"
     inkscape:window-x="0"
     inkscape:window-y="25"
     inkscape:window-maximized="1"
     inkscape:snap-bbox="true"
     inkscape:snap-bbox-edge-midpoints="false"
     inkscape:snap-smooth-nodes="true"
     inkscape:bbox-nodes="false"
     inkscape:snap-intersection-paths="true"
     inkscape:snap-nodes="false"
     inkscape:snap-object-midpoints="true"
     inkscape:snap-center="true"
     inkscape:snap-bbox-midpoints="true"
     units="px" />
  <defs
     id="defs2">
    <clipPath
       clipPathUnits="userSpaceOnUse"
       id="clipPath15245">
      <g
         aria-label="∞"
         transform="matrix(1.1419208,0,0,0.89824678,76.747013,39.205981)"
         style="font-style:normal;font-weight:normal;font-size:72.4289856px;line-height:1.25;font-family:sans-serif;letter-spacing:0px;word-spacing:0px;fill:#000000;fill-opacity:1;stroke:none;stroke-width:0.26124421"
         id="g15249">
        <path
           d="m 89.750359,102.66773 q -1.096337,-1.27316 -2.829257,-4.243882 -2.369503,4.243882 -4.45608,6.118272 -2.617063,2.2634 -6.68412,2.2634 -4.774372,0 -7.921921,-3.57193 -3.324377,-3.748771 -3.324377,-9.937771 0,-5.94144 3.324377,-9.973132 2.97072,-3.571937 7.992652,-3.571937 2.581697,0 4.491446,1.060971 2.22804,1.167069 3.748766,3.182915 1.414628,1.803651 2.829257,4.243886 2.369503,-4.243886 4.45608,-6.118269 2.617063,-2.263406 6.68412,-2.263406 4.774368,0 7.921918,3.571937 3.32438,3.748766 3.32438,9.937766 0,5.941441 -3.32438,9.97313 -2.97072,3.57194 -7.992649,3.57194 -2.581697,0 -4.491446,-1.06097 -1.909749,-0.95488 -3.748766,-3.18292 z m -14.35848,-0.49512 q 5.835343,0 9.336549,-8.487768 -4.491446,-9.265818 -9.336549,-9.265818 -3.536572,0 -5.340223,2.546332 -1.945115,2.72316 -1.945115,6.330463 0,3.96096 1.945115,6.401194 1.98048,2.475597 5.340223,2.475597 z M 98.450325,84.489756 q -5.269491,0 -9.336549,8.487772 4.456081,9.265822 9.336549,9.265822 3.536575,0 5.340225,-2.546337 1.94511,-2.72316 1.94511,-6.330463 0,-3.96096 -1.94511,-6.401194 -1.98048,-2.4756 -5.340225,-2.4756 z"
           style="stroke-width:0.26124421"
           id="path15247"
           inkscape:connector-curvature="0" />
      </g>
    </clipPath>
  </defs>
  <metadata
     id="metadata5">
    <rdf:RDF>
      <cc:Work
         rdf:about="">
        <dc:format>image/svg+xml</dc:format>
        <dc:type
           rdf:resource="http://purl.org/dc/dcmitype/StillImage" />
        <dc:title></dc:title>
      </cc:Work>
    </rdf:RDF>
  </metadata>
  <g
     inkscape:label="Layer 1"
     inkscape:groupmode="layer"
     id="layer1"
     transform="translate(-24.285671,-25.064421)">
    <text
       id="text25487"
       y="-21.619846"
       x="-51.566914"
       style="font-style:normal;font-weight:normal;font-size:10.74789715px;line-height:1.25;font-family:sans-serif;letter-spacing:0px;word-spacing:0px;fill:#000000;fill-opacity:1;stroke:none;stroke-width:0.26458332"
       xml:space="preserve"><tspan
         style="stroke-width:0.26458332"
         y="-12.110476"
         x="-51.566914"
         id="tspan25485"
         sodipodi:role="line" /></text>
    <g
       id="g25505"
       style="font-style:normal;font-weight:normal;font-size:72.4289856px;line-height:1.25;font-family:sans-serif;letter-spacing:0px;word-spacing:0px;opacity:1;fill:#000000;fill-opacity:1;stroke:none;stroke-width:0.19719519"
       transform="matrix(1.5128166,0,0,1.1899974,-73.343392,-52.13282)"
       aria-label="∞">
      <path
         inkscape:connector-curvature="0"
         id="path25503"
         style="stroke-width:0.19719519"
         d="m 89.750359,102.66773 q -1.096337,-1.27316 -2.829257,-4.243882 -2.369503,4.243882 -4.45608,6.118272 -2.617063,2.2634 -6.68412,2.2634 -4.774372,0 -7.921921,-3.57193 -3.324377,-3.748771 -3.324377,-9.937771 0,-5.94144 3.324377,-9.973132 2.97072,-3.571937 7.992652,-3.571937 2.581697,0 4.491446,1.060971 2.22804,1.167069 3.748766,3.182915 1.414628,1.803651 2.829257,4.243886 2.369503,-4.243886 4.45608,-6.118269 2.617063,-2.263406 6.68412,-2.263406 4.774368,0 7.921918,3.571937 3.32438,3.748766 3.32438,9.937766 0,5.941441 -3.32438,9.97313 -2.97072,3.57194 -7.992649,3.57194 -2.581697,0 -4.491446,-1.06097 -1.909749,-0.95488 -3.748766,-3.18292 z m -14.35848,-0.49512 q 5.835343,0 9.336549,-8.487768 -4.491446,-9.265818 -9.336549,-9.265818 -3.536572,0 -5.340223,2.546332 -1.945115,2.72316 -1.945115,6.330463 0,3.96096 1.945115,6.401194 1.98048,2.475597 5.340223,2.475597 z M 98.450325,84.489756 q -5.269491,0 -9.336549,8.487772 4.456081,9.265822 9.336549,9.265822 3.536575,0 5.340225,-2.546337 1.94511,-2.72316 1.94511,-6.330463 0,-3.96096 -1.94511,-6.401194 -1.98048,-2.4756 -5.340225,-2.4756 z" />
    </g>
  </g>
</svg>
